<?xml version="1.0" encoding="UTF-8"?>
<svg version="1.1" xmlns="http://www.w3.org/2000/svg" width="144" height="144">
<path d="M0 0 C47.52 0 95.04 0 144 0 C144 47.52 144 95.04 144 144 C96.48 144 48.96 144 0 144 C0 96.48 0 48.96 0 0 Z " fill="#FCFAFB" transform="translate(0,0)"/>
<path d="M0 0 C0.66 0 1.32 0 2 0 C2.556875 0.804375 3.11375 1.60875 3.6875 2.4375 C6.63295739 5.70138521 8.82582855 5.72491953 13 6 C17.52929517 6.18415789 22.05739095 6.25602109 26.58984375 6.31640625 C27.88950577 6.33718735 29.18916779 6.35796844 30.5282135 6.37937927 C33.96236175 6.43424033 37.39656625 6.4838062 40.83081055 6.53222656 C44.3436374 6.5827064 47.85638384 6.63825339 51.36914062 6.69335938 C58.24602528 6.80050013 65.12298518 6.90157156 72 7 C72 14.26 72 21.52 72 29 C24.48 29 -23.04 29 -72 29 C-72 21.74 -72 14.48 -72 7 C-70.02684814 7.02094727 -68.05369629 7.04189453 -66.02075195 7.06347656 C-59.4949088 7.1280273 -52.96914132 7.17396155 -46.4430666 7.20724869 C-42.48700917 7.22810652 -38.53129775 7.25639036 -34.57543945 7.30175781 C-30.75639136 7.34528121 -26.93767567 7.36915069 -23.11839867 7.37950897 C-21.66273962 7.3868888 -20.20709838 7.4013002 -18.75158119 7.42292023 C-16.70939733 7.45204276 -14.66857946 7.45595264 -12.6262207 7.45410156 C-11.46484085 7.46298401 -10.303461 7.47186646 -9.10688782 7.48101807 C-5.32107354 6.89488649 -3.67981484 5.69323342 -1 3 C-0.67 2.01 -0.34 1.02 0 0 Z " fill="#E5E5E5" transform="translate(72,115)"/>
<path d="M0 0 C-0.61875 0.2475 -1.2375 0.495 -1.875 0.75 C-4.43625851 2.25662265 -4.89898152 3.27969358 -6 6 C-6.30261204 8.0543449 -6.30261204 8.0543449 -6.265625 10.1875 C-6.26820312 10.96867187 -6.27078125 11.74984375 -6.2734375 12.5546875 C-6.26570313 13.36164063 -6.25796875 14.16859375 -6.25 15 C-6.25773437 15.80695313 -6.26546875 16.61390625 -6.2734375 17.4453125 C-6.26957031 18.61707031 -6.26957031 18.61707031 -6.265625 19.8125 C-6.26336914 20.52019531 -6.26111328 21.22789063 -6.25878906 21.95703125 C-5.81190353 25.48489742 -4.60158665 27.5045757 -1.875 29.75 C-1.25625 30.1625 -0.6375 30.575 0 31 C-3.5742977 30.67506385 -5.55712453 30.36129314 -8.375 28.0625 C-10 26 -10 26 -10 24 C-10.66 24 -11.32 24 -12 24 C-12.061875 24.5775 -12.12375 25.155 -12.1875 25.75 C-13.3717896 29.02957119 -15.06987122 30.17680876 -18 32 C-21.3125 32.25 -21.3125 32.25 -24 32 C-21.85199157 29.63719073 -19.83319533 28.41659766 -17 27 C-15.25512838 23.51025676 -15.68823384 19.59576703 -15.625 15.75 C-15.58761719 14.90308594 -15.55023438 14.05617188 -15.51171875 13.18359375 C-15.44940778 8.73182118 -15.60927923 5.89090543 -18.5234375 2.390625 C-19.34070313 1.60171875 -20.15796875 0.8128125 -21 0 C-16.16743695 0.41421969 -14.17320782 2.46413986 -11 6 C-10.13375 4.824375 -10.13375 4.824375 -9.25 3.625 C-6.16868605 0.03013372 -4.63670415 -1.54556805 0 0 Z " fill="#761031" transform="translate(84,91)"/>
<path d="M0 0 C4.79810101 4.67507278 6.16621995 6.49711229 6.3125 13.1875 C6.29292931 19.07175534 5.49004944 22.31024607 2 27 C1.01 27 0.02 27 -1 27 C-4.33740736 21.2638311 -6.32169497 16.67401344 -5 10 C-3.58810702 6.50690837 -1.90013551 3.25058897 0 0 Z " fill="#740C2F" transform="translate(72,62)"/>
<path d="M0 0 C2.25225066 0.2288383 4.50184817 0.48389223 6.75 0.75 C8.00296875 0.88921875 9.2559375 1.0284375 10.546875 1.171875 C14.38909237 2.09331175 15.68267272 2.85193276 18 6 C19.046875 8.578125 19.046875 8.578125 19.75 11.25 C20.11351562 12.58804688 20.11351562 12.58804688 20.484375 13.953125 C20.65453125 14.62859375 20.8246875 15.3040625 21 16 C18.9367016 15.93958131 16.87422586 15.85068362 14.8125 15.75 C13.66394531 15.70359375 12.51539062 15.6571875 11.33203125 15.609375 C7.39292318 14.8889754 5.74084103 13.89746052 3 11 C1.85546875 8.203125 1.85546875 8.203125 1.1875 5.25 C0.95417969 4.26515625 0.72085938 3.2803125 0.48046875 2.265625 C0.32191406 1.51796875 0.16335937 0.7703125 0 0 Z " fill="#760F31" transform="translate(101,38)"/>
<path d="M0 0 C5.93826999 -0.36356755 10.8652811 -0.38891447 16 3 C18.28063076 7.28531331 19 11.16997137 19 16 C17.41590006 15.88512252 15.83271037 15.75765492 14.25 15.625 C12.92742187 15.52058594 12.92742187 15.52058594 11.578125 15.4140625 C8.90979243 14.98551212 7.22953602 14.52167037 5 13 C3.76953125 10.9765625 3.76953125 10.9765625 2.8125 8.625 C2.48894531 7.85414062 2.16539063 7.08328125 1.83203125 6.2890625 C1.07444313 4.20480599 0.48849631 2.16122608 0 0 Z " fill="#750E30" transform="translate(125,47)"/>
<path d="M0 0 C9.77351782 2.07265981 9.77351782 2.07265981 13.5625 4.9375 C15.814554 9.73535418 16.36609657 14.77029673 17 20 C3.09550562 15.64325843 3.09550562 15.64325843 0 11 C-0.1953125 8.30078125 -0.1953125 8.30078125 -0.125 5.3125 C-0.10695313 4.31863281 -0.08890625 3.32476562 -0.0703125 2.30078125 C-0.04710938 1.54152344 -0.02390625 0.78226563 0 0 Z " fill="#760F32" transform="translate(118,60)"/>
<path d="M0 0 C3.36193979 3.09652349 5.94891813 5.48034798 7 10 C6.88689441 16.78633552 4.56895743 21.31073944 1 27 C-2.69989186 25.15005407 -3.72780093 20.75714865 -5 17 C-6.16413225 10.88259915 -4.17915278 6.11984042 -1 1 C-0.67 0.67 -0.34 0.34 0 0 Z " fill="#750D30" transform="translate(72,30)"/>
<path d="M0 0 C0.66 0 1.32 0 2 0 C2.8353125 1.2065625 2.8353125 1.2065625 3.6875 2.4375 C6.63295739 5.70138521 8.82582855 5.72491953 13 6 C17.52929517 6.18415789 22.05739095 6.25602109 26.58984375 6.31640625 C27.88950577 6.33718735 29.18916779 6.35796844 30.5282135 6.37937927 C33.96236175 6.43424033 37.39656625 6.4838062 40.83081055 6.53222656 C44.3436374 6.5827064 47.85638384 6.63825339 51.36914062 6.69335938 C58.24602389 6.80050011 65.12297998 6.90204057 72 7 C72 7.66 72 8.32 72 9 C46.26 9 20.52 9 -6 9 C-6 8.34 -6 7.68 -6 7 C-5.195625 6.360625 -4.39125 5.72125 -3.5625 5.0625 C-0.76279268 3.18964068 -0.76279268 3.18964068 0 0 Z " fill="#D6D6D6" transform="translate(72,115)"/>
<path d="M0 0 C3.23828114 0.65951263 5.80549593 1.83215228 8.6875 3.4375 C9.47511719 3.86933594 10.26273438 4.30117188 11.07421875 4.74609375 C13 6 13 6 14 8 C14.22950319 10.204364 14.41075933 12.41392173 14.5625 14.625 C14.64628906 15.81351563 14.73007813 17.00203125 14.81640625 18.2265625 C14.87699219 19.14179687 14.93757813 20.05703125 15 21 C11.61235496 19.70260403 8.42791545 18.24891991 5.25 16.5 C4.47140625 16.0771875 3.6928125 15.654375 2.890625 15.21875 C1 14 1 14 0 12 C-0.07065617 9.95944995 -0.08421976 7.91665743 -0.0625 5.875 C-0.05347656 4.77929688 -0.04445313 3.68359375 -0.03515625 2.5546875 C-0.02355469 1.71164063 -0.01195313 0.86859375 0 0 Z " fill="#740B2E" transform="translate(81,52)"/>
<path d="M0 0 C1.6692612 0.66014337 3.33545552 1.32805216 5 2 C5.70382813 2.27457031 6.40765625 2.54914062 7.1328125 2.83203125 C10.95018723 4.71077842 12.64983431 6.09249663 14.21484375 10.1484375 C16.38838619 19.22322761 16.38838619 19.22322761 15 22 C13.05916841 20.90169995 11.12244672 19.79613495 9.1875 18.6875 C8.10855469 18.07261719 7.02960938 17.45773438 5.91796875 16.82421875 C1.32753852 13.95443171 1.32753852 13.95443171 0 12 C-0.29296875 9.08203125 -0.29296875 9.08203125 -0.1875 5.8125 C-0.16042969 4.72582031 -0.13335937 3.63914063 -0.10546875 2.51953125 C-0.07066406 1.68808594 -0.03585938 0.85664063 0 0 Z " fill="#771133" transform="translate(83,31)"/>
<path d="M0 0 C3.50015042 1.27278197 6.29136592 2.7415007 9.25 5 C9.93578125 5.515625 10.6215625 6.03125 11.328125 6.5625 C13.68660267 8.59034996 13.96765029 9.7116483 14.31640625 12.8203125 C14.39761719 13.91085938 14.47882813 15.00140625 14.5625 16.125 C14.64628906 17.22070312 14.73007813 18.31640625 14.81640625 19.4453125 C14.87699219 20.28835937 14.93757813 21.13140625 15 22 C13.05886066 21.07005883 11.1222049 20.1307547 9.1875 19.1875 C8.10855469 18.66542969 7.02960938 18.14335938 5.91796875 17.60546875 C1.3803492 15.10886683 1.3803492 15.10886683 0 13 C-0.29296875 9.86328125 -0.29296875 9.86328125 -0.1875 6.3125 C-0.16042969 5.13300781 -0.13335937 3.95351562 -0.10546875 2.73828125 C-0.07066406 1.83464844 -0.03585938 0.93101563 0 0 Z " fill="#771032" transform="translate(101,79)"/>
<path d="M0 0 C11.79525131 5.28985507 11.79525131 5.28985507 14 10 C14.30546437 14.02370311 14.23115464 17.97405662 14 22 C10.94185543 20.54440716 8.13706343 18.86747996 5.3125 17 C4.52488281 16.484375 3.73726563 15.96875 2.92578125 15.4375 C1 14 1 14 0 12 C-0.07065617 9.95944995 -0.08421976 7.91665743 -0.0625 5.875 C-0.05347656 4.77929688 -0.04445313 3.68359375 -0.03515625 2.5546875 C-0.02355469 1.71164063 -0.01195313 0.86859375 0 0 Z " fill="#730A2D" transform="translate(100,56)"/>
<path d="M0 0 C-0.65921564 4.35082321 -2.00237289 8.07873196 -4 12 C-7.24712392 14.21159465 -10.39205872 14.37339513 -14.25 14.625 C-15.86648437 14.73714844 -15.86648437 14.73714844 -17.515625 14.8515625 C-18.33546875 14.90054688 -19.1553125 14.94953125 -20 15 C-18.60514692 9.92780698 -16.84920378 4.71616679 -13 1 C-8.684978 -0.28899219 -4.45590101 0 0 0 Z " fill="#730A2D" transform="translate(44,39)"/>
<path d="M0 0 C0.11683663 10.3150052 0.11683663 10.3150052 -2.34375 14.02734375 C-6.37783635 17.63051633 -10.89145361 19.38677483 -16 21 C-15.36338691 8.46530772 -15.36338691 8.46530772 -12 5 C-3.61559889 0 -3.61559889 0 0 0 Z " fill="#760F31" transform="translate(63,31)"/>
<path d="M0 0 C0.93494519 11.82532527 0.93494519 11.82532527 -2.4375 16.0625 C-4.06640625 17.078125 -4.06640625 17.078125 -6 18 C-6.79277344 18.38671875 -7.58554687 18.7734375 -8.40234375 19.171875 C-10.58158733 20.17715008 -12.7704314 21.11312716 -15 22 C-14.7176952 19.31810436 -14.38047351 16.66801176 -14 14 C-13.855625 12.824375 -13.71125 11.64875 -13.5625 10.4375 C-11.41564696 5.71442332 -5.58069078 0 0 0 Z " fill="#760F32" transform="translate(65,51)"/>
<path d="M0 0 C-0.22886309 1.77368892 -0.4839238 3.54401077 -0.75 5.3125 C-0.88921875 6.29863281 -1.0284375 7.28476562 -1.171875 8.30078125 C-2 11 -2 11 -3.625 12.78125 C-6.80596322 14.41358639 -9.70837286 14.76119303 -13.25 15.1875 C-14.51328125 15.34605469 -15.7765625 15.50460938 -17.078125 15.66796875 C-18.04234375 15.77753906 -19.0065625 15.88710938 -20 16 C-16.71393643 5.73105134 -16.71393643 5.73105134 -13 2 C-8.73803782 0.33878791 -4.54160771 0 0 0 Z " fill="#750E30" transform="translate(20,47)"/>
<path d="M0 0 C0.08187055 1.56160485 0.13958275 3.12448483 0.1875 4.6875 C0.23970703 5.99267578 0.23970703 5.99267578 0.29296875 7.32421875 C-0.07279118 10.66482615 -0.91143267 12.36929392 -3 15 C-5.62890625 16.36328125 -5.62890625 16.36328125 -8.5625 17.3125 C-10.01849609 17.80169922 -10.01849609 17.80169922 -11.50390625 18.30078125 C-14 19 -14 19 -16 19 C-14.8453098 9.15928201 -14.8453098 9.15928201 -11.8125 5 C-8.29621873 2.49953332 -4.45297104 0 0 0 Z " fill="#760F31" transform="translate(28,60)"/>
<path d="M0 0 C2.41975181 0.88449261 4.67106411 1.88405155 7 3 C-0.5483871 10.75806452 -0.5483871 10.75806452 -4.625 11.4375 C-9.43581281 10.81387612 -13.58623647 8.95391903 -18 7 C-12.42810877 1.31098193 -8.35704628 -2.49732047 0 0 Z " fill="#771032" transform="translate(18,32)"/>
<path d="M0 0 C0.98484375 0.02707031 1.9696875 0.05414063 2.984375 0.08203125 C3.73203125 0.11683594 4.4796875 0.15164063 5.25 0.1875 C4.53600431 5.09944623 2.85319538 7.9214108 -0.4296875 11.58203125 C-4.77748818 14.59035798 -9.70000686 13.78454352 -14.75 13.1875 C-14.01290216 11.57736415 -13.25974143 9.97457609 -12.5 8.375 C-12.08234375 7.48167969 -11.6646875 6.58835937 -11.234375 5.66796875 C-8.28815098 0.74467335 -5.63028017 -0.20108143 0 0 Z " fill="#750D30" transform="translate(92.75,11.8125)"/>
<path d="M0 0 C-0.18896086 11.73275134 -0.18896086 11.73275134 -3 16.125 C-6.8250418 18.51565112 -10.66022131 19.83705277 -15 21 C-13.38721137 7.69449378 -13.38721137 7.69449378 -9 4 C-2.18272425 0 -2.18272425 0 0 0 Z " fill="#750D2F" transform="translate(45,79)"/>
<path d="M0 0 C2.95407993 2.05338042 5.6044742 4.31263349 8 7 C8 7.66 8 8.32 8 9 C-2.71929005 13.00186829 -2.71929005 13.00186829 -7 12 C-9.92535305 9.55421303 -12.48426224 6.8605343 -15 4 C-11.24024185 0.24024185 -5.14034164 -0.94414438 0 0 Z " fill="#740C2E" transform="translate(109,23)"/>
<path d="M0 0 C0.10794277 2.26979665 0.18556176 4.54105196 0.25 6.8125 C0.29640625 8.07707031 0.3428125 9.34164062 0.390625 10.64453125 C0 14 0 14 -1.71875 15.8125 C-4.03897992 17.02029092 -6.34343892 18.16117248 -8.75 19.1875 C-9.54921875 19.53167969 -10.3484375 19.87585938 -11.171875 20.23046875 C-11.77515625 20.48441406 -12.3784375 20.73835938 -13 21 C-12.93976506 18.91587093 -12.85091679 16.83255565 -12.75 14.75 C-12.70359375 13.58984375 -12.6571875 12.4296875 -12.609375 11.234375 C-11.89693528 7.4529642 -10.98111024 6.34649107 -8 4 C-2.03703704 0 -2.03703704 0 0 0 Z " fill="#740C2F" transform="translate(45,57)"/>
<path d="M0 0 C2.58926497 1.4650458 4.67913323 3.10541488 7 5 C6.67 6.32 6.34 7.64 6 9 C-2.5 11.72 -2.5 11.72 -7 11 C-10.21397444 9.27671765 -13.22891678 7.37697361 -16 5 C-16 4.34 -16 3.68 -16 3 C-10.63820101 0.95740991 -5.80556418 -0.86008358 0 0 Z " fill="#740C2E" transform="translate(137,32)"/>
<path d="M0 0 C1.75070517 0.11470137 3.50057536 0.24219028 5.25 0.375 C6.22453125 0.44460938 7.1990625 0.51421875 8.203125 0.5859375 C10.97842167 0.99680544 12.68760244 1.43304639 15 3 C16.265625 4.83984375 16.265625 4.83984375 17.25 6.9375 C17.58515625 7.62714844 17.9203125 8.31679688 18.265625 9.02734375 C19 11 19 11 19 14 C13.48235455 14.28539545 9.62330276 14.39042202 5 11 C0 3.79683377 0 3.79683377 0 0 Z " fill="#760F31" transform="translate(47,11)"/>
<path d="M0 0 C4.11794825 0.41179483 7.76980488 1.25775225 11.75 2.375 C10.48254267 6.17737199 8.03534337 8.27208971 4.8125 10.4609375 C-0.61146865 12.86474179 -7.01649376 10.38788701 -12.25 8.375 C-11.13625 7.50875 -11.13625 7.50875 -10 6.625 C-7.25131376 4.52082742 -7.25131376 4.52082742 -5.375 2.125 C-3.25 0.375 -3.25 0.375 0 0 Z " fill="#760F31" transform="translate(40.25,22.625)"/>
<path d="M0 0 C3 1 3 1 4.16796875 2.69140625 C5.19482988 5.5405843 5.30105008 7.91090569 5.3125 10.9375 C5.32925781 11.95714844 5.34601563 12.97679687 5.36328125 14.02734375 C4.95494192 17.36870105 3.91007169 19.26340652 2 22 C-0.69600373 21.0114653 -1.80558649 20.34022364 -3.25 17.8125 C-4.96185851 11.39303058 -3.97061849 7.16845814 -0.875 1.50390625 C-0.58625 1.00761719 -0.2975 0.51132812 0 0 Z " fill="#760F31" transform="translate(72,3)"/>
<path d="M0 0 C2.42645774 1.22553342 4.68423995 2.56422877 7 4 C2.44821125 7.71330135 0.13829549 9.34797715 -5.890625 9.29296875 C-9.28649682 8.82131989 -11.43811326 7.17760373 -14 5 C-14 4.34 -14 3.68 -14 3 C-5.66560417 -1.92871631 -5.66560417 -1.92871631 0 0 Z " fill="#740C2E" transform="translate(130,18)"/>
<path d="M0 0 C2.45889267 1.18829332 4.67873734 2.54352147 7 4 C1.38709677 9.80645161 1.38709677 9.80645161 -2.6875 10.375 C-7.03498372 9.88283203 -10.23428347 8.14091498 -14 6 C-10.18166515 1.96702502 -5.71504868 -0.97574002 0 0 Z " fill="#730C2E" transform="translate(23,17)"/>
<path d="M0 0 C0.77257552 3.58194103 1.31153105 6.12771306 0.0625 9.625 C-2.79123403 12.91111797 -6.16605582 14.97987246 -10 17 C-10.33 17 -10.66 17 -11 17 C-11.29030084 13.61960797 -11.43013734 10.37206431 -11 7 C-8.75 4.5625 -8.75 4.5625 -6 3 C-5.278125 2.4225 -4.55625 1.845 -3.8125 1.25 C-2 0 -2 0 0 0 Z " fill="#771133" transform="translate(62,73)"/>
<path d="M0 0 C1.69271945 0.5974304 3.35380887 1.28426473 5 2 C6.0725 2.45375 7.145 2.9075 8.25 3.375 C12.13136361 7.079938 11.8056985 10.31879811 11.9921875 15.515625 C11.99476562 16.33546875 11.99734375 17.1553125 12 18 C11.40445313 17.7009375 10.80890625 17.401875 10.1953125 17.09375 C8.42938522 16.21392858 6.65367207 15.35376259 4.875 14.5 C0.78209551 10.94095262 0.52931114 7.23835505 0 2 C0 1.34 0 0.68 0 0 Z " fill="#750E30" transform="translate(83,73)"/>
<path d="M0 0 C2.63016161 2.1727422 4.47336894 3.94673788 6 7 C-0.34482759 10.05039788 -0.34482759 10.05039788 -3.03125 9.84375 C-5.64843142 8.72210082 -6.63031205 7.25659866 -8.25 4.9375 C-8.77078125 4.20402344 -9.2915625 3.47054688 -9.828125 2.71484375 C-10.21484375 2.14894531 -10.6015625 1.58304688 -11 1 C-7.18390462 -0.01873881 -3.97130184 -0.41803177 0 0 Z " fill="#750E30" transform="translate(38,9)"/>
<path d="M0 0 C1.57499749 3.14999498 0.70833498 5.63540882 0 9 C-2.06172453 11.59438892 -4.08689696 12.62007928 -7.1875 13.6875 C-8.26064453 14.06455078 -8.26064453 14.06455078 -9.35546875 14.44921875 C-9.89816406 14.63097656 -10.44085938 14.81273438 -11 15 C-10.65587045 6.94736842 -10.65587045 6.94736842 -8.3125 3.5625 C-5.63782575 1.75528767 -3.10457892 0.84670334 0 0 Z " fill="#771133" transform="translate(26,81)"/>
<path d="M0 0 C4.38639869 1.19629055 7.36653912 2.19611206 10 6 C10.62340878 9.03322422 10.8171683 11.89186113 11 15 C7.37 13.02 3.74 11.04 0 9 C0 6.03 0 3.06 0 0 Z " fill="#750F30" transform="translate(120,82)"/>
<path d="M0 0 C-0.97866338 1.14626322 -1.95794587 2.29199788 -2.9375 3.4375 C-3.48277344 4.07558594 -4.02804688 4.71367187 -4.58984375 5.37109375 C-5.36795695 6.26991149 -6.15936528 7.15936528 -7 8 C-8.52519276 7.91062197 -10.04681929 7.75462854 -11.5625 7.5625 C-12.38878906 7.46066406 -13.21507813 7.35882813 -14.06640625 7.25390625 C-14.70449219 7.17011719 -15.34257813 7.08632813 -16 7 C-16.33 6.01 -16.66 5.02 -17 4 C-11.67419232 -1.90157067 -7.55675433 -1.35806439 0 0 Z " fill="#720A2C" transform="translate(119,10)"/>
<path d="M0 0 C0.66 0 1.32 0 2 0 C2.86625 1.175625 2.86625 1.175625 3.75 2.375 C6.34121129 5.39807984 8.19684394 6.04921098 12 7 C12 7.33 12 7.66 12 8 C6.39 8 0.78 8 -5 8 C-3.68 6.35 -2.36 4.7 -1 3 C-0.67 2.01 -0.34 1.02 0 0 Z " fill="#EEE9EA" transform="translate(72,115)"/>
<path d="M0 0 C4.875 1.875 4.875 1.875 6 3 C6.14115161 5.67058851 6.04247107 8.32432238 6 11 C4 11 4 11 1.3125 8.875 C-1 6 -1 6 -0.8125 2.6875 C-0.544375 1.800625 -0.27625 0.91375 0 0 Z " fill="#7C1B3A" transform="translate(89,94)"/>
<path d="M0 0 C0.52849741 5.28497409 0.52849741 5.28497409 0 8 C-3 10.5 -3 10.5 -6 12 C-6.4386423 6.73629243 -6.4386423 6.73629243 -6 4 C-2.1 0 -2.1 0 0 0 Z " fill="#761032" transform="translate(57,93)"/>
<path d="M0 0 C-0.61875 0.2475 -1.2375 0.495 -1.875 0.75 C-4.35068687 2.20628639 -4.95125002 3.37812506 -6 6 C-7.32 6 -8.64 6 -10 6 C-8.20404732 1.26521567 -5.07984355 -1.69328118 0 0 Z " fill="#7E213E" transform="translate(84,91)"/>
<path d="M0 0 C0.66 0 1.32 0 2 0 C2 2.31 2 4.62 2 7 C2.66 7.33 3.32 7.66 4 8 C2.02 8.99 2.02 8.99 0 10 C0 6.7 0 3.4 0 0 Z " fill="#832A45" transform="translate(51,80)"/>
<path d="M0 0 C0.33 0 0.66 0 1 0 C1 3.96 1 7.92 1 12 C-0.32 11.34 -1.64 10.68 -3 10 C-2.34 9.67 -1.68 9.34 -1 9 C-0.53348793 6.87423218 -0.53348793 6.87423218 -0.375 4.4375 C-0.30023438 3.61121094 -0.22546875 2.78492187 -0.1484375 1.93359375 C-0.09945312 1.29550781 -0.05046875 0.65742187 0 0 Z " fill="#903D58" transform="translate(113,66)"/>
<path d="M0 0 C0.33 0 0.66 0 1 0 C1.33 4.29 1.66 8.58 2 13 C0.68 12.34 -0.64 11.68 -2 11 C-1.34 7.37 -0.68 3.74 0 0 Z " fill="#7F203F" transform="translate(94,60)"/>
<path d="M0 0 C2.05078125 0.03255208 4.1015625 0.06510417 6.15234375 0.09765625 C6.15234375 0.42765625 6.15234375 0.75765625 6.15234375 1.09765625 C5.05921875 1.38640625 3.96609375 1.67515625 2.83984375 1.97265625 C-0.8877947 2.91658829 -0.8877947 2.91658829 -3.84765625 5.09765625 C-2.72914438 0.14424653 -2.72914438 0.14424653 0 0 Z " fill="#700528" transform="translate(86.84765625,12.90234375)"/>
</svg>
